<svg id="Layer_1" data-name="Layer 1" xmlns="http://www.w3.org/2000/svg" viewBox="0 0 484.73 675.02"><defs><style>.cls-1,.cls-6{fill:#eb6843;}.cls-1{opacity:0.5;}.cls-2{fill:#fff;}.cls-3{fill:#2a1334;}.cls-4{fill:#5a5e82;}.cls-5{fill:#a7a9c7;}.cls-7{fill:#f0ac7d;}.cls-8{fill:#d0d2d3;}</style></defs><polygon class="cls-1" points="232.12 112.34 245.15 0 241.41 112.83 271 2.76 250.55 114.31 296.23 8.23 259.4 116.74 320.46 16.34 267.82 120.08 343.29 26.94 275.67 124.3 364.37 39.88 282.84 129.31 383.36 54.95 289.21 135.04 399.96 71.91 294.68 141.4 413.93 90.5 299.16 148.29 425.02 110.42 302.59 155.6 433.07 131.35 304.9 163.21 437.95 152.97 306.07 171.01 439.59 174.94 306.07 178.88 437.95 196.91 304.9 186.68 433.07 218.54 302.59 194.29 425.02 239.47 299.16 201.6 413.93 259.39 294.68 208.49 399.96 277.98 289.21 214.85 383.36 294.94 282.84 220.58 364.37 310.01 275.67 225.59 343.29 322.95 267.82 229.81 320.46 333.55 259.4 233.15 296.23 341.66 250.55 235.58 271 347.13 241.41 237.06 245.15 349.89 232.12 237.55 219.09 349.89 222.83 237.06 193.24 347.13 213.69 235.58 168.01 341.66 204.84 233.15 143.78 333.55 196.42 229.81 120.95 322.95 188.57 225.59 99.87 310.01 181.4 220.58 80.88 294.94 175.03 214.85 64.27 277.98 169.56 208.49 50.31 259.39 165.08 201.6 39.22 239.47 161.65 194.29 31.17 218.54 159.34 186.68 26.29 196.91 158.17 178.88 24.65 174.94 158.17 171.01 26.29 152.97 159.34 163.21 31.17 131.35 161.65 155.6 39.22 110.42 165.08 148.29 50.31 90.5 169.56 141.4 64.27 71.91 175.03 135.04 80.88 54.95 181.4 129.31 99.87 39.88 188.57 124.3 120.95 26.94 196.42 120.08 143.78 16.34 204.84 116.74 168.01 8.23 213.69 114.31 193.24 2.76 222.83 112.83 219.09 0 232.12 112.34"/><path class="cls-2" d="M244.21,486.77c-8.77-.13-20.75-.31-30.37-6.56-6.46-3.84-17.19-9.5-20.88-11.35a74.26,74.26,0,0,1-12.21-7.71v7l-21.94-25a111.34,111.34,0,0,1-6.87-9L131.83,408.7c-5.71-7.18-10.8-27.69-5.19-50.7-6.78-13.82-14.17-36.34-5.37-58.15l.29-.69.36-.66c5.08-9.23,11.28-13,16.67-14.31,1.28-18.87,5.65-51.37,20.47-69.4,5-10.19,13.7-18.71,18.65-23l.19-.16-3.77-1.13.12-.48.17-.47c1-2.84,7-17.1,27.13-22.34l-2.46-5.4c6.07-4.05,13.81-6.1,23-6.1a78.62,78.62,0,0,1,24,4.09v-3.18a47.7,47.7,0,0,1,4.87-.24c22.39,0,53.34,13.41,73.75,50.88,15,15.33,23.78,40.39,26.7,76.28,4.56,1.05,10.25,3.94,14.77,11.3,7.37,11.42,10.06,33.3,1.14,53.6a70.14,70.14,0,0,1-3.73,9.14c2.47,9.69,5.83,30-2.9,48.49l-14,29.74-2.7-9a108.24,108.24,0,0,1-11.26,16l-22,26v-8.21a110.14,110.14,0,0,1-22.52,13.06c-2.88,1.33-8.12,4.5-10.9,6.21-.82.51-1.57.94-2.09,1.24-7.37,4.43-25,5.47-30.24,5.69h-.73Z" transform="translate(-13.19 -8.7)"/><path class="cls-2" d="M134.94,341.64c-3.71-13.84-9.56-31.22-12.34-35-15.14-20.82-13.29-35.62-9.07-44.37a44.26,44.26,0,0,1,8.69-12.6c-.24-9.94,1-27.39,10.65-43.4,2.78-8.47,9-15.68,11.79-18.68,5.54-8.62,34-47.05,101.43-47.05l3.68,0c56.12.05,85,28.11,97.7,46.07,7,5.85,10.77,14,12.35,18.22,4,5.69,14.1,22.37,10.62,42.77,0,1.42.06,2.74.07,3.93,5.57,6.67,10.85,17.93,8.61,32.94-1.51,10.05-4,14-6.56,17.44a4.88,4.88,0,0,0-.59.85c-.48,1.1-1.16,2.43-2.09,4.27-2.8,5.5-16.68,23.16-15.83,30.91l-7.62,3.6-3.67,8.79c-4.63-1.17-33.3-6.44-59.66-11.09-19.52,2-49.78,5.27-53,5.77-5,.78-41.74.9-63.73.9l-10.05,1.2-15,18.2Z" transform="translate(-13.19 -8.7)"/><path class="cls-3" d="M141,340c-3.1-11.52-9.45-31.77-13.33-37.12C117,288.2,114.16,275.44,119.21,265c3.18-6.59,6.66-10.39,9.44-12.55-.55-8.28-.33-26.87,10-43.56,2.38-8,8.84-15.17,11-17.38,3.85-6.26,30.17-44.68,96.46-44.68,1.19,0,2.39,0,3.61,0,54.09,0,81.39,27.22,93.11,44.1,6.75,5.31,10.24,13.67,11.38,16.84,3,4.09,13.53,19.87,9.93,39.34.08,3.08.1,5.29.08,6.86,4.08,4.22,11,13.92,8.68,29.55-1.29,8.62-3.11,11.59-5.36,14.58a9.62,9.62,0,0,0-1.32,2.1c-.41.94-1.05,2.2-1.94,4-3.65,7.15-12.18,23.9-11.13,33.53L354.26,348l-9.55-3.71c-3.91-1.14-39.25-7.54-61.39-11.44-14.61,1.53-50.39,5.31-54.21,5.9-4.94.76-49.07.82-63.14.82L153,341.13l-8.82,10.71Z" transform="translate(-13.19 -8.7)"/><path class="cls-3" d="M154.66,195.36s24.5-43.72,95-42.21c43.72,0,72.73,18.84,88.56,42.21,7.16,5.08,10.37,15.45,10.37,15.45s13.25,15.95,9.23,35.8a86.29,86.29,0,0,1,0,10.05s11.49,8.23,8.86,25.94c-1.7,11.3-4.15,10.36-6.22,15.07s-15.08,26.95-13.57,40.7c-3.39-1.32-63.31-11.87-63.31-11.87s-50.5,5.28-55.4,6-62.56.76-62.56.76l-15.82,1.88-2.64,3.2s-8.29-30.9-14.32-39.19-13-20.91-7.92-31.47,10.43-11.93,10.43-11.93-3.82-24.12,9.17-44.34C146.5,203.4,154.66,195.36,154.66,195.36Z" transform="translate(-13.19 -8.7)"/><path class="cls-3" d="M136,259.48s23.61-23.17,111.8-21.41c55.77-.76,97.48,5.83,112.05,27.16,3.64,5.5,4.77,14.73,1,23.4C357,296,343.28,319.15,343.85,336.3c-1.32-.94-194.08-1.13-194.08-1.13s-6-27.76-13.82-38.82-10.68-16.58-8.23-25.62C129.7,264.42,136,259.48,136,259.48Z" transform="translate(-13.19 -8.7)"/><path class="cls-3" d="M262.49,182.22s-10.55-12.56-15.07-13.06c14.32-1.51,46.22,6,67.08,45.72,10.55,10.05,23.11,31.16,25.12,82.66,3.52-1.51,10.43-5,15.89,4,5.09,7.73,7.54,25.81,0,42.4a64.3,64.3,0,0,1-5.46,12.24s8.85,24.12-.76,44.47c-1.69-5.65-3.2-14.88-6.21-16.39,0,15.26-4.72,32.22-20.17,50.31,0-7.54-.37-13.85-.37-13.85s-5.28,19.22-17.15,27.7a97.39,97.39,0,0,1-22.55,13.66c-4.4,2-11.68,6.66-14.19,8.17s-11.94,3.39-24.25,3.89c-8.29-.13-17.46-.38-23.87-4.65-6.53-3.89-17.64-9.86-21.79-11.93s-23.55-13.95-27.13-27.7c-2.64-7.16-3.21-8.76-3.21-8.76v13.66s-21.48-24.31-21.48-48.8c-2.92,5.27-5.08,11.4-5.18,14.88-2.54-3.2-8.76-21.29-1.6-44.28-4-7.16-15.83-30.52-7.16-52,4.14-7.54,9.67-11.06,17.71-6-.12-5.66.75-56.53,19.1-76.88,6.28-14.57,26.63-30.15,32.15-29.9-14.82-1-15.64,2-15.64,2S191.77,176.63,221,178c-7.91-4.71-10.74-6.78-14.88-5.65C219.09,163.63,246.73,170.1,262.49,182.22Z" transform="translate(-13.19 -8.7)"/><path class="cls-4" d="M239.38,368s-6.79-4.92-18-5.22c-2.13-3.45-9.54-5.71-9.54-5.71s-6.28-7.78,14.07-11.8c5,.87,13.56,8.54,14.69,12.81.13-5.65-1.19-7.35-1.19-7.35s4.32.13,5.65,7c1.13-4.65,5.53-7.22,5.53-7.22l-.88,7.79s4.7-11,13.5-13c6.54-1.64,17.37,6.32,17.17,8.87-1.84,2.83-1.21,2.43-1.21,2.43s-8.7,4-9.56,6.21c-2.88.32-12.05-.3-18.45,5.22a13.81,13.81,0,0,1-.26-4.33s-4.47,4.83-5.25,5.34c-2.16-1.89-6.3-4.78-6.3-4.78Z" transform="translate(-13.19 -8.7)"/><path class="cls-2" d="M208.54,280.83s-7.16,3.08-7.35,4.84c3.27.56,8.35,1.7,10.36,3.83-9.73-.44-12.5,0-12.5,0a31.35,31.35,0,0,0-17,13.57c-.26,5.4,0,9.54,0,9.54S185,303.7,196,303.82c6,.25,20.48.88,33.29,16.46a73.36,73.36,0,0,0,6.53-5.78s-6.41-15.83-15.2-23.49c8.29,4.4,14.2,6.78,17.08,12.56a33.23,33.23,0,0,1,1.89,7.79l5.65-5.53,5.4,5.4s-.88-13.06,18.15-20c-2.54,3-12.24,14-13.37,23.74,1.88,2.07,4.52,4.83,4.52,4.83s15.07-18.46,37.31-15.82c5.15.75,10.42,5,11.18,8.29a38.12,38.12,0,0,0-.88-10.3,35.58,35.58,0,0,0-15.2-12.19,102.36,102.36,0,0,0-14.2-.63l11.18-3-6.91-5.28-22.73,10.81,4.65-12.94-12.06,15.83-1.64-5.78-5.59,8.79-5-8.79-1.51,6.15-11.68-15.45,3.64,11.68Z" transform="translate(-13.19 -8.7)"/><path class="cls-2" d="M201.09,310.52l4.6,3.92s-.7,8.5,5.2,9.5c3.14.19,4.46-3.26,4-4.83,2.07.25,4.71,1.95,4.65,2.7-.63,1.51-1.83,5.51-8.23,5.46C201.09,327.27,201.59,313.41,201.09,310.52Z" transform="translate(-13.19 -8.7)"/><path class="cls-2" d="M290.74,308.68,285,313.41s.71,8.5-5.2,9.51c-3.14.19-4.46-3.27-3.95-4.84-2.08.25-4.72,1.95-4.65,2.7.63,1.51,1.82,5.51,8.23,5.47C289.61,326.25,290.24,311.57,290.74,308.68Z" transform="translate(-13.19 -8.7)"/><path class="cls-5" d="M197.64,296.52s11-9.3,22.52,0c8,6.17,10.73,9.17,9.42,15.84C225.81,307.34,211.18,295.62,197.64,296.52Z" transform="translate(-13.19 -8.7)"/><path class="cls-5" d="M292.36,297s-11-9.29-22.51,0c-8,6.18-10.73,9.18-9.43,15.85C264.19,307.85,278.83,296.14,292.36,297Z" transform="translate(-13.19 -8.7)"/><path class="cls-2" d="M195.63,319.25s-2.45,3.7,0,8.88c-2-1.51-4.14-2.14-3.48-7.85-1.89.41-2.74,2.67-2.74,2.67s-2.82-3.7-4.9-1.71c-2,2.37-4.33,11.28-4.33,12.95,3.49-2.1,5.37-2.67,5.37-2.29,0,0-5,9.23-3.57,16.86,1.78-3.48,5.93-5.46,5.93-5.46s-4.62,12.34-3,18.46c0,0,4.33-8.19,11.59-12.25-3.68-2.73-5.18-8.12-4.81-9s5.28,7.78,10.93,7.4a11.79,11.79,0,0,0,8.07-4.14s-11.27-.57-13.34-7c6.78,3.39,13.75,4.05,17.61.47-6.12.09-11.58.09-15.16-4.71C196.76,328.22,195.63,319.25,195.63,319.25Z" transform="translate(-13.19 -8.7)"/><path class="cls-2" d="M295.55,320.28s2.45,3.69,0,8.88c2-1.51,4.14-2.14,3.49-7.86,1.88.41,2.73,2.67,2.73,2.67s2.82-3.7,4.9-1.7c2,2.36,4.33,11.27,4.33,12.94-3.49-2.1-5.37-2.66-5.37-2.29,0,0,5,9.24,3.57,16.87-1.78-3.49-5.93-5.47-5.93-5.47s4.62,12.35,3,18.47c0,0-4.33-8.2-11.59-12.25,3.68-2.73,5.18-8.12,4.81-9s-5.28,7.79-10.93,7.41a11.82,11.82,0,0,1-8.07-4.15s11.27-.56,13.34-7c-6.78,3.39-13.75,4.05-17.61.47,6.12.1,11.58.1,15.16-4.71C294.42,329.25,295.55,320.28,295.55,320.28Z" transform="translate(-13.19 -8.7)"/><path class="cls-2" d="M232.09,342.26s9.3,1.13,12.31,3.77a7.07,7.07,0,0,0,2,0s7.44-4,11.4-3.77a11.13,11.13,0,0,0-2.54,3.82s8.38-4.9,12.62-4.55c4.24.82,12.63,7.33,13,9.4-.18,2.45-.66,4.71-1.69,5.65s-8.48,3.2-9.89,6.88c.37.19,10.27-4.43,15.16-4.24,1.51-5.47,1.42-8.39.95-8.86s5.27-.75,9.79,16.4c3,12.24,10,28.26,0,36.55-1.31,2.26-72-26.88-91.51-12.56,0,0-7.28,4.52-7.54,6.28-2.38-5.53-5.77-41.2,7.29-45.72l1.89,7.53s12.43.76,16,6.22a16.1,16.1,0,0,0-9.48-8,15.72,15.72,0,0,1-2.26-6.28s8.54-9.49,13.81-9.27c4.53,1.11,10.56,2.74,11.69,4.62Z" transform="translate(-13.19 -8.7)"/><path class="cls-3" d="M214.63,354.19s4.59-7,9.55-6.65c4.71,1.19,11.93,8.35,13.06,16.14-3.52-3.14-4-5-11.62-7-6.91-1.82-7.1-4.84-7.1-4.84S214.57,353,214.63,354.19Z" transform="translate(-13.19 -8.7)"/><path class="cls-3" d="M276.23,354.19s-4.58-7-9.54-6.65c-4.71,1.19-11.94,8.35-13.07,16.14,3.52-3.14,4-5,11.62-7,6.91-1.82,7.1-4.84,7.1-4.84S276.3,353,276.23,354.19Z" transform="translate(-13.19 -8.7)"/><path class="cls-2" d="M197,405.7s-.15-19.59,45.86-11.8c19.88,2.73,45.61,8.19,51.65,16,.2,8.77-1.17,30.31-23.39,39.08,4.68,2,11.26-.88,11.26-.88s-9.07,16.38-34.94,4c2.92,8.77,4.53,7.75,4.53,7.75s-13.6-1.61-21-8c-3.8,1-4.24,1.61-1.76,3.65s6,4.42,6,4.42-18.13,1.87-30.7-12.17c3.36.88,8.62,3.22,13.88,2.78C206.19,442.68,195.57,423,197,405.7Z" transform="translate(-13.19 -8.7)"/><path class="cls-3" d="M245.33,367l-1,15.59-.83,2.07s2.4.94,3.69,0a4.82,4.82,0,0,0-.91-2.07Z" transform="translate(-13.19 -8.7)"/><path class="cls-2" d="M169.53,326.31s-13.44,10.05-13.44,20.6C158.86,342,168,330.7,169.53,326.31Z" transform="translate(-13.19 -8.7)"/><path class="cls-2" d="M321.42,326.92s13.44,10.05,13.44,20.61C332.1,342.63,322.93,331.32,321.42,326.92Z" transform="translate(-13.19 -8.7)"/><path class="cls-2" d="M172.42,327.81s-12.81,14.83-14.82,32.29c4-5.78,5.28-9.67,7.41-10.55-1.51,3.51-8.67,20.35-8,28a163.14,163.14,0,0,1,10.3-15.8S159,380,159.74,388.61c3-6.53,9.79-15.7,9.79-15.7s-7.28,19.22-5.52,29.4c3.14-7.79,9.42-18,9.42-18s-5.53,24.5-4,31.16c4.9-5,8.16-14.83,8.79-18.85l.63-4s5.53-17.08,9.55-21c-5.15,2-8.92,9.42-8.92,9.42S180.84,369.32,182,367c-2.76,1-7.66,9-7.66,9s1.63-13.35,5.15-20.41c-4.9,2.61-8.29,9.15-8.29,9.15s2.38-16.71,4.9-21.36c-5,.88-8.55,10.55-8.55,10.55s5-17.71,7.67-19.22c-4.15,2-8.67,6.8-8.67,6.8Z" transform="translate(-13.19 -8.7)"/><path class="cls-2" d="M317.84,327.81s12.81,14.83,14.82,32.29c-4-5.78-5.27-9.67-7.41-10.55,1.51,3.51,8.67,20.35,8,28a163.14,163.14,0,0,0-10.3-15.8s8.29,18.19,7.54,26.85c-3-6.53-9.8-15.7-9.8-15.7s7.28,19.22,5.52,29.4c-3.14-7.79-9.42-18-9.42-18s5.53,24.5,4,31.16c-4.9-5-8.16-14.83-8.79-18.85l-.63-4s-5.53-17.08-9.54-21c5.15,2,8.91,9.42,8.91,9.42s-1.38-11.76-2.51-14.11c2.77,1,7.66,9,7.66,9s-1.63-13.35-5.15-20.41c4.9,2.61,8.29,9.15,8.29,9.15s-2.38-16.71-4.89-21.36c5,.88,8.54,10.55,8.54,10.55s-5-17.71-7.67-19.22c4.15,2,8.67,6.8,8.67,6.8Z" transform="translate(-13.19 -8.7)"/><path class="cls-6" d="M133.29,295s-2.68-21.49-1.27-25.32-.57-12.61,54.92-19.84c45.39-6.43,78.38-5.66,123.37,1.59,34.91,5.64,50.57,17.8,49.76,23.54,3.82,13.33.38,36.87.38,36.87s8.9-13.62,11-21.5c3.48-6.44,5.18-27.65-9.37-37.56s-65.56-21-115.29-19.34c-33.95.27-88.91.83-117.94,19-16.92,14.14-16,23.62-7.25,41.38C138.78,326.44,133.29,295,133.29,295Z" transform="translate(-13.19 -8.7)"/><path class="cls-6" d="M364.34,244.37s2.11,8-.09,12.82c-7.1-3.47-12.3-6.71-12.3-6.71l4.83-9.5h1.82Z" transform="translate(-13.19 -8.7)"/><path class="cls-2" d="M150.79,304s-6.69-5.65-10.18-2.07-7.35,14.69-5.28,26.75c1.13,6.32,1.89,9.43,1.89,9.43s3.75-8.3,5.55-9c.2-4.8,1.42-11.11,3.49-12.15l-2.63-3.39s-2.93,1.7-3.87,9.33c-1-6.5-.47-11.4,4.43-16.58,2.26,2.07,5.94,5.37,5.94,5.37Z" transform="translate(-13.19 -8.7)"/><path class="cls-2" d="M340.48,303.83s6.69-5.65,10.18-2.07,7.34,14.69,5.27,26.75c-1.13,6.31-1.88,9.42-1.88,9.42s-3.75-8.29-5.55-8.95c-.2-4.8-1.42-11.11-3.5-12.15l2.64-3.39s2.92,1.69,3.86,9.33c1-6.51.47-11.4-4.42-16.59-2.27,2.08-5.94,5.37-5.94,5.37Z" transform="translate(-13.19 -8.7)"/><path class="cls-6" d="M129.56,243.11s-2.11,8,.09,12.82c7.1-3.47,14.1-6.75,14.1-6.75l-5.82-11-2.63,1.49Z" transform="translate(-13.19 -8.7)"/><path class="cls-6" d="M161.48,185.67c1.06-1.44,29.78-32.94,85.87-32.94,1.11,0,2.22,0,3.35,0,46,.63,71.7,23.15,80.62,32.8l7.47,9.67-14.78.33c-4.74-2.22-27.09-10.5-49.81-10.5a77.27,77.27,0,0,0-14.55,1.3c-2.66,1.77-3,2.28-3.16,2.46s-.3.42-.47.63c-1.71,2.13-4.71,3.22-8.92,3.22-2.61,0-6.24-.5-8.73-2.86a22.07,22.07,0,0,0-13-4h-.68c-1.46,0-3.07-.07-4.78-.15-2.12-.1-4.53-.2-7.23-.2-8.88,0-23.09,1.05-43.91,10.15l-17.23,6.45S154.57,191.72,161.48,185.67Z" transform="translate(-13.19 -8.7)"/><path class="cls-6" d="M166.16,186.69s28.33-32,84.35-30.78c36.68.51,62.56,16.08,76.13,30.78-7.79-3.64-41.39-15.41-69.47-9.42-5.28,3.39-5.37,4.14-6.12,5.09s-6.6,1.41-8.39-.29-8.54-5.81-17.68-5.71S197.78,172.87,166.16,186.69Z" transform="translate(-13.19 -8.7)"/><path class="cls-2" d="M226.56,154.36l-11.62,80.8,63.21-.64-11-80.29S246.63,150.78,226.56,154.36Z" transform="translate(-13.19 -8.7)"/><path class="cls-7" d="M233.1,153.43,226.56,235h8.49V153.23S233.12,153.15,233.1,153.43Z" transform="translate(-13.19 -8.7)"/><path class="cls-7" d="M259.07,153.32l6.61,81.46h-8.49V153.13S259,153,259.07,153.32Z" transform="translate(-13.19 -8.7)"/><path class="cls-3" d="M299.85,200.63l3.67,34.53s-11.11-6.56-12.63-9c-.21-2.64-3.05-34.33-3.05-34.33s10.89,1.69,11.39,2.59C299.48,196.36,299.85,200.63,299.85,200.63Z" transform="translate(-13.19 -8.7)"/><path class="cls-3" d="M283.46,191.3,286.35,221s-4.58-4.84-5.25-5.77c-.15-1.51-1.28-23.91-1.28-23.91Z" transform="translate(-13.19 -8.7)"/><path class="cls-3" d="M141.7,287.14s-2.67-7,3.26-11.23,22-9.33,53.67-13.72,68.84-5.41,104.39.75c28.89,4.9,34.67,7.16,47.23,15.45,2.83,1.76.13,8.35.38,9.3-.57-3.9.06-6.41-2.2-7.79.19,2.76-2.14,6.75-2.83,7.24S323.12,271.48,309.3,269s-49.49-9.3-85.92-6.28-63.55,13.57-75.49,23.61a35.36,35.36,0,0,1-3.27-7.16S141.68,281.06,141.7,287.14Z" transform="translate(-13.19 -8.7)"/><path class="cls-2" d="M212.14,170.3l75.48.62s39,.08,54.88,16.44c7.45,6.77,10.3,11.56,10.3,11.56l21.92,30s8,12.26,1,25.82c-1.27,4.9-14-4.17-17.32-8.65a1.44,1.44,0,0,0-2.5.35c-2.08,5.41-8.76,17.68-27.76,22.35-10.93,2.69-36-1.16-51.15-12.38-8.44-5-15.81-19.2-19.95-22.63s-4.79-5.29-8.31-5.29c-3.52-.23-6.5,2.18-10.14,7.63-3.56,4.52-10.6,16.2-22.35,22.51-8.77,4.59-16.55,9.66-37.74,11-18.29,1.33-31.57-15.3-31.57-15.3a36.94,36.94,0,0,1-7.24-12.16c-6.24,1.2-18.58,20.6-20.5,12.65,0,0-6.35-16.24,5.44-26.52,3-5.78,19-28.86,19-28.86s8.49-17.08,33.94-24.09C193.94,171.08,212.14,170.3,212.14,170.3Z" transform="translate(-13.19 -8.7)"/><path class="cls-2" d="M176.38,267.81c-16,0-27.78-14.49-27.9-14.64a42.12,42.12,0,0,1-7.18-12.37l-.51-1-2.25.28c-3.56-.18-14.21,14.65-17,14.65-1.61-1.61-3.46-17.29,3.44-22.94,5.18-9.4,18.9-29.77,18.92-29.76l.86-.69.56-1.14c.09-.16,8.5-16.42,32.7-23.08,15.58-4,33.05-4.9,34.12-5l75.43.62c.39,0,38.31.27,53.42,15.83l.09.08c7.1,6.46,9.92,11.09,9.95,11.14l.65,1.08,21.13,31.39c2.32,2.88,4.2,9.67.34,20.61-1.38,4.3-13.8-13.74-17.08-11.22l-1.1.37-.2,1.08c-.05.27-4.06,18.13-27.22,23.82a33.26,33.26,0,0,1-7.68.76c-11.77,0-29.85-4-41.73-12.8l-.08-.06-.09-.05c-5-2.95-9.72-9.56-13.55-14.87-2.47-3.44-4.42-6.15-6.15-7.58-1.08-.9-1.92-1.69-2.65-2.38-2.07-2-3.57-3.36-6.9-3.38l-.53,0c-5,0-8.52,4.27-11.33,8.47-.6.77-1.28,1.7-2.06,2.79C231,243.12,224.62,252,215.21,257l-2.2,1.16c-7.73,4.13-15.73,8.4-34.68,9.58C177.67,267.79,177,267.81,176.38,267.81Z" transform="translate(-13.19 -8.7)"/><path class="cls-3" d="M176.38,265.94c-14.93,0-26.2-13.75-26.31-13.89-2.67-3.59-7.76-14.35-7.76-14.35l-3.55-.19c-2.09-.1-10.88,8.74-16.32,14.54,0-8.75.81-14.57,3.59-17.51,1.55-3.64,17.29-31.4,17.31-31.4l2.69.14,1.13-2.29c.08-.14,8.33-15.71,31.46-22.08,15.16-3.91,32.29-4.81,33.6-4.87l75.37.62c.39,0,37.48.3,52,15.22l.12.12c6.86,6.25,9.63,10.73,9.66,10.77l1.29,2.15,19.38,30c2.75,3.57,4.12,7.85,2,16.3-1.24,2.9-11.62-11.13-15.41-9.87l-2.18.73-.41,2.15c-.05.26-5.11,17.59-26.9,23a31.75,31.75,0,0,1-7.18.7c-11.44,0-29-3.89-40.51-12.41l-.15-.11-.17-.11c-4.62-2.75-9.25-9.18-13-14.34-2.56-3.55-4.57-6.35-6.48-7.93-1-.86-1.85-1.63-2.57-2.3-2.12-2-4.12-3.89-8.24-3.93l-.59,0c-5.93,0-9.88,4.68-13,9.28-.62.8-1.32,1.77-2.06,2.79-3.73,5.15-10,13.75-19,18.58l-2.2,1.17c-7.54,4-15.34,8.18-33.83,9.33C177.58,265.92,177,265.94,176.38,265.94Z" transform="translate(-13.19 -8.7)"/><path class="cls-2" d="M173.55,254.79c-14.3,0-23.84-4.16-28.38-12.36-7.38-13.36-7.63-35.67,3.74-47.61,9.09-9.54,16.22-13.49,25.46-14.09.1,0,14.8-.46,28.09-.46,14.17,0,18.91.49,22,1.28,16.43,4.28,22,14.69,17,31.83l-.2.62c-4.07,11.33-11.56,24.43-36.44,35.84l-.23.1-.9.37-.28.09C198.87,251.93,185.53,254.79,173.55,254.79Z" transform="translate(-13.19 -8.7)"/><path class="cls-3" d="M173.55,253.85c-13.9,0-23.15-4-27.5-11.86-7.22-13.07-7.5-34.89,3.6-46.54,8.89-9.34,15.84-13.2,24.78-13.79.17,0,14.95-.46,28-.46,14.06,0,18.73.48,21.71,1.25,15.78,4.11,21.1,14.15,16.28,30.68l-.19.6c-4,11.12-11.38,24-35.93,35.27l-.21.09-.87.36-.23.08C198.59,251,185.4,253.85,173.55,253.85Z" transform="translate(-13.19 -8.7)"/><path class="cls-2" d="M173.55,249.18c-11.9,0-19.66-3.14-23.09-9.34-6.33-11.45-6.7-31.22,2.89-41.28,8-8.42,13.83-11.74,21.43-12.23.15,0,14.9-.45,27.68-.45,14.25,0,18.22.52,20.38,1.08,13.09,3.41,16.93,10.87,12.82,24.94l-.11.34c-3.66,10.2-10.49,22-33.39,32.56l-.75.31-.08,0C197.32,246.5,184.65,249.18,173.55,249.18Z" transform="translate(-13.19 -8.7)"/><path class="cls-2" d="M173.55,246.38c-10.7,0-17.57-2.64-20.45-7.84-5.86-10.61-6-29.16,2.47-38.1,7.43-7.81,12.7-10.88,19.41-11.32.13,0,14.82-.44,27.48-.44,13.93,0,17.72.5,19.59,1,9.76,2.54,15,7,10.74,21.49l-.06.19c-3.47,9.67-10,20.89-31.88,30.94l-.54.22C196.19,243.9,183.78,246.38,173.55,246.38Z" transform="translate(-13.19 -8.7)"/><path class="cls-3" d="M173.55,245.44c-10.3,0-16.88-2.46-19.57-7.33-5.71-10.34-5.93-28.38,2.32-37.05,7.25-7.6,12.33-10.59,18.75-11,.17,0,14.85-.44,27.41-.44,13.9,0,17.63.51,19.33.95,9.4,2.45,14.06,6.57,10,20.35l-.05.16c-3.4,9.48-9.78,20.47-31.37,30.37l-.48.2C195.91,243,183.66,245.44,173.55,245.44Z" transform="translate(-13.19 -8.7)"/><path class="cls-2" d="M173.55,243.57c-9.5,0-15.49-2.12-17.81-6.32-5.3-9.6-5.56-27,2-34.94,6.86-7.19,11.57-10,17.41-10.39.2,0,14.78-.44,27.27-.44,13.81,0,17.34.51,18.8.88,8.58,2.24,12.27,5.64,8.65,18l0,.11c-3.25,9.07-9.4,19.64-30.34,29.24l-.29.12C195.36,241.2,183.43,243.57,173.55,243.57Z" transform="translate(-13.19 -8.7)"/><path class="cls-3" d="M173.55,241.7c-8.7,0-14.09-1.79-16-5.31-4.91-8.89-5.22-25.51,1.75-32.83,6.46-6.79,10.82-9.43,16.07-9.78.18,0,14.61-.43,27.13-.43,10.19,0,16.16.27,18.27.82,6.86,1.78,10.77,3.73,7.27,15.75-3.14,8.73-9.05,18.86-29.33,28.16l-.09,0C194.8,239.41,183.2,241.7,173.55,241.7Z" transform="translate(-13.19 -8.7)"/><path class="cls-2" d="M175.4,194.72s39.23-1.17,45.06.35,10.06,2.68,6.58,14.6c-3.1,8.65-8.94,18.46-28.8,27.57-5.84,2-35,7.48-39.85-1.28s-4.84-25,1.61-31.78S170.62,195,175.4,194.72Z" transform="translate(-13.19 -8.7)"/><path class="cls-6" d="M173.55,240.3c-8,0-13.07-1.58-14.72-4.56-4.67-8.44-4.87-24.52,1.54-31.25,6.17-6.47,10.25-9,15.06-9.31.13,0,14.53-.43,27-.43,8.54,0,13.18.2,15.67.44a15.29,15.29,0,0,1,2.2.33c5.78,1.5,9.6,2.5,6.23,14-3,8.38-8.76,18.2-28.54,27.27A97.31,97.31,0,0,1,173.55,240.3Z" transform="translate(-13.19 -8.7)"/><path class="cls-2" d="M323.8,252.92c14.29,0,23.84-4.16,28.37-12.36,7.38-13.36,7.64-35.67-3.74-47.61-9.08-9.54-16.22-13.49-25.45-14.09-.1,0-14.81-.46-28.09-.46-14.18,0-18.92.49-22,1.28-16.42,4.28-22,14.69-17,31.83l.2.62c4.06,11.33,11.56,24.43,36.44,35.84l.23.1.89.37.28.09C298.47,250.06,311.82,252.92,323.8,252.92Z" transform="translate(-13.19 -8.7)"/><path class="cls-3" d="M323.8,252c13.89,0,23.14-4,27.49-11.85,7.23-13.08,7.5-34.9-3.6-46.55-8.89-9.34-15.84-13.2-24.78-13.79-.17,0-14.94-.46-28-.46-14.07,0-18.74.48-21.71,1.26-15.79,4.1-21.11,14.14-16.28,30.68l.19.59c4,11.12,11.37,24,35.92,35.27l.21.09.88.36.22.08C298.75,249.17,311.94,252,323.8,252Z" transform="translate(-13.19 -8.7)"/><path class="cls-2" d="M323.8,247.31c11.89,0,19.66-3.14,23.09-9.34,6.32-11.45,6.69-31.22-2.89-41.27-8-8.43-13.84-11.75-21.43-12.24-.16,0-14.91-.45-27.68-.45-14.26,0-18.22.52-20.39,1.08C261.41,188.5,257.58,196,261.68,210l.11.34c3.66,10.2,10.49,22,33.4,32.56l.75.31.07,0C300,244.63,312.7,247.31,323.8,247.31Z" transform="translate(-13.19 -8.7)"/><path class="cls-2" d="M323.8,244.51c10.69,0,17.57-2.64,20.44-7.84,5.87-10.61,6.06-29.16-2.46-38.1-7.44-7.81-12.7-10.88-19.42-11.32-.13,0-14.82-.44-27.47-.44-13.94,0-17.73.5-19.6,1-9.76,2.54-15,7-10.73,21.5l.06.18c3.46,9.67,10,20.89,31.87,30.94l.54.22C301.15,242,313.56,244.51,323.8,244.51Z" transform="translate(-13.19 -8.7)"/><path class="cls-3" d="M323.8,243.57c10.29,0,16.87-2.46,19.56-7.33,5.72-10.34,5.94-28.38-2.32-37.05-7.24-7.6-12.33-10.59-18.75-11-.17,0-14.85-.44-27.4-.44-13.9,0-17.63.5-19.33.94-9.41,2.45-14.07,6.57-10.05,20.35l.06.16c3.4,9.48,9.77,20.47,31.36,30.37l.49.2C301.43,241.13,313.68,243.57,323.8,243.57Z" transform="translate(-13.19 -8.7)"/><path class="cls-2" d="M323.8,241.7c9.49,0,15.48-2.12,17.8-6.32,5.3-9.6,5.57-27-2-34.94-6.85-7.19-11.57-10-17.41-10.39-.2,0-14.78-.44-27.26-.44-13.82,0-17.35.51-18.8.89-8.58,2.23-12.28,5.63-8.66,18l0,.11c3.26,9.07,9.41,19.64,30.34,29.24l.29.12C302,239.33,313.91,241.7,323.8,241.7Z" transform="translate(-13.19 -8.7)"/><path class="cls-3" d="M323.8,239.83c8.69,0,14.09-1.78,16-5.31,4.91-8.89,5.22-25.51-1.76-32.83-6.46-6.78-10.81-9.43-16.06-9.78-.19,0-14.61-.43-27.13-.43-10.19,0-16.17.27-18.27.82-6.87,1.78-10.78,3.73-7.28,15.75,3.14,8.73,9.06,18.86,29.33,28.16l.1,0C302.55,237.54,314.14,239.83,323.8,239.83Z" transform="translate(-13.19 -8.7)"/><path class="cls-2" d="M322,192.85s-39.23-1.17-45.07.35-10.05,2.68-6.58,14.6c3.11,8.65,8.94,18.46,28.8,27.57,5.84,2,35,7.48,39.86-1.28s4.84-25-1.62-31.78S326.73,193.16,322,192.85Z" transform="translate(-13.19 -8.7)"/><path class="cls-6" d="M323.8,238.43c8,0,13.07-1.57,14.72-4.56,4.66-8.44,4.86-24.52-1.55-31.25-6.16-6.47-10.25-9-15.06-9.31-.12,0-14.53-.42-27-.42s-16.54.41-17.88.76c-5.77,1.5-9.59,2.5-6.23,14,3,8.38,8.76,18.2,28.54,27.27A97.41,97.41,0,0,0,323.8,238.43Z" transform="translate(-13.19 -8.7)"/><polygon class="cls-2" points="252.58 178.72 252.58 169.45 255.2 168.13 263.04 170.84 267.48 170.98 267.48 178.42 262.69 178.42 254.97 181.07 252.58 178.72"/><polygon class="cls-3" points="266.49 171.88 266.49 177.49 262.51 177.49 255.24 179.98 253.58 178.35 253.58 170.01 255.28 169.16 262.85 171.76 266.49 171.88"/><polygon class="cls-2" points="216.66 178.72 216.66 169.45 214.04 168.13 206.21 170.84 201.76 170.98 201.76 178.42 206.55 178.42 214.28 181.07 216.66 178.72"/><polygon class="cls-3" points="202.76 171.88 202.76 177.49 206.73 177.49 214.01 179.98 215.67 178.35 215.67 170.01 213.96 169.16 206.4 171.76 202.76 171.88"/><rect class="cls-2" x="216.83" y="170.01" width="9.93" height="7.48"/><rect class="cls-3" x="217.7" y="171.75" width="6.81" height="4.8"/><rect class="cls-2" x="243.64" y="170.01" width="9.93" height="7.48"/><rect class="cls-3" x="244.64" y="172.15" width="6.23" height="4.4"/><path class="cls-2" d="M180.11,194.3l-1.49,45.43s15.09-1.91,19.4-3.48c0-3.44,0-41.95,0-41.95Z" transform="translate(-13.19 -8.7)"/><path class="cls-2" d="M316.71,193.68l1.49,44.81s-15.09-1.6-19.41-3.17c0-3.44,0-41.64,0-41.64Z" transform="translate(-13.19 -8.7)"/><rect class="cls-2" x="225.77" y="168.14" width="18.87" height="12.15"/><polygon class="cls-3" points="226.76 170.01 243.64 170.01 243.64 178.51 243.64 179.36 226.76 179.36 226.76 170.01"/><rect class="cls-2" y="622.76" width="118.36" height="5.81"/><rect class="cls-2" x="366.37" y="625.3" width="118.36" height="5.81"/><path class="cls-2" d="M141.85,306.52s3.15,2.08-1.45,5.54-8.9,5.18-11.24,10.16c.55.21,4.41-1,5.77-4.15l1.6-2.83,7.54.45s-2.79,11.75-12.58,17.21c-7.77,4-13.1-4.06-12.75-6.76s.62-10,9.47-15.56S139.59,303.81,141.85,306.52Z" transform="translate(-13.19 -8.7)"/><path class="cls-3" d="M140.44,307.67s-1.22-1.85-4.05.07S119.49,318,121.75,327c1.32,5.78,8.31,4,9,3.49a23.24,23.24,0,0,0,9.8-12.12,16.11,16.11,0,0,0-2.84-.88s-.58,4.68-9,7.75c3.44-.26,2.87.7,7.73-2.41-1.5,2.42-7.6,7.52-9.73,5.34s2.28-9.44,5.23-12a52.86,52.86,0,0,1,7.25-5.05S141.77,309.21,140.44,307.67Z" transform="translate(-13.19 -8.7)"/><path class="cls-2" d="M134.93,318.07s-.65,9.53.61,11.85c2.94-3.68,6.73-13,6.73-13l-4.21-.52Z" transform="translate(-13.19 -8.7)"/><path class="cls-6" d="M18,487.48c8.83,2.47,13.17,3.66,21.92,5.9,2.17,13.08,3.3,19.51,5.49,32.17,2.23-12,3.37-17.85,5.6-29.4,8.35,2,12.54,3,20.92,4.83,0,5.19,0,7.78.08,13a6.36,6.36,0,0,0-1.9,4.57c0,.38-.06,2.32,0,5.83.07,11.45.1,17.17.17,28.62,0,2.6,0,4.2.11,4.82a5.43,5.43,0,0,0,2,3.74c0,5.38,0,8.06.08,13.44l-20.53-.1-.05-14.27c1.22-.59,1.83-2.32,1.82-5.21,0-8.85,0-13.27-.09-22.12q-3.75,20.78-7.4,41.57l-4.88,0q-3.93-21.73-7.66-43.5c0,7.57,0,11.35,0,18.92,0,2.72.06,4.52.17,5.38a6.16,6.16,0,0,0,1.78,4.18c0,6-.07,9-.06,15L18,574.68V558.85c1.26-.38,1.94-1.94,1.94-4.7,0-15.12-.05-30.23-.06-45.35,0-3-.62-5-1.88-6Z" transform="translate(-13.19 -8.7)"/><path class="cls-6" d="M77.3,502.13c8.45,1.79,12.68,2.63,21.15,4.21,0,5.08,0,7.63.09,12.71-1.34.64-2,3-2,7.15l.2,26.84c0,2.84.06,4.48.12,4.91q.45,3.42,3.31,3.54c2,.08,3-1.63,3-5.12-.09-12.49-.14-18.73-.24-31.22,0-3-.71-4.91-2-5.74l-.1-12.64c8.27,1.52,12.4,2.22,20.69,3.54l.1,12c-1.68,1-2.5,3.82-2.46,8.5l.2,24.5c0,4.82-.52,8.64-1.67,11.5a15.21,15.21,0,0,1-7.26,7.73c-2.57,1.35-6,2-10.42,2-4.82,0-8.53-.71-11.12-2.18-6.08-3.44-9.15-9.86-9.21-19-.08-13.37-.13-20.06-.21-33.43,0-3-.7-5.09-2-6.37C77.35,510.2,77.34,507.51,77.3,502.13ZM93,499.42c-2.42-.51-3.63-.76-6-1.29a10.14,10.14,0,0,1,2.46-7.26,5.89,5.89,0,0,1,6-1.8,16,16,0,0,1,3.83,1.83,15,15,0,0,0,3.91,1.82c1.12.24,1.84,0,2.17-.78,2.29.5,3.43.75,5.72,1.23a10.47,10.47,0,0,1-2.21,6.67c-1.5,1.93-3.26,2.73-5.27,2.34a13.91,13.91,0,0,1-3.54-1.32c-3.08-1.6-4.77-2.46-5-2.52A1.55,1.55,0,0,0,93,499.42Z" transform="translate(-13.19 -8.7)"/><path class="cls-6" d="M149.29,514.26c8.44,1.07,12.66,1.54,21.1,2.4,7.44.75,12.6,1.83,15.48,3.36,4.46,2.35,6.71,6.56,6.75,12.72q.07,11.44-8.86,12.54a11.22,11.22,0,0,1,7.45,4.61,15.34,15.34,0,0,1,2.58,8.89c0,.62,0,.94,0,1.57q.09,15-18.43,15l-25.58-.06c0-4.43-.06-6.65-.09-11.07q2.52-1.06,2.47-6.1l-.2-25.21a20.67,20.67,0,0,0-.28-4,3.43,3.43,0,0,0-2.3-2.75Zm19.17,14.68.08,10.68a18.91,18.91,0,0,0,4.72-.06c1.57-.51,2.35-1.71,2.34-3.62,0-.5,0-.75,0-1.25-.24-2.22-1-3.74-2.23-4.55A11.4,11.4,0,0,0,168.46,528.94Zm.16,21.55.1,12.49a11,11,0,0,0,5-.69c1.34-.75,2-2.25,2-4.52v-1.61c-.24-2.09-.71-3.53-1.42-4.3s-2-1.21-4-1.3Z" transform="translate(-13.19 -8.7)"/><path class="cls-6" d="M232.29,520.67q3.84,19.89,7.69,39.78.77,3.94,3,5.55c0,3.75,0,5.63,0,9.39l-21.55,0c0-3.79,0-5.69,0-9.49q1.84-1.51,1.83-5.06l-8.43-.11c0,2.39.7,4.1,2,5.13,0,3.81,0,5.72,0,9.53l-18.69,0c0-4.1,0-6.14-.06-10.23a10.53,10.53,0,0,0,2.5-5.68q3.42-19.92,6.88-39.84C217.46,520.17,222.41,520.38,232.29,520.67ZM210.9,505.26c0-.69,0-1,0-1.71a7,7,0,0,1,3-5.26,9.66,9.66,0,0,1,6-1.31l1.28.08c5.48.32,8.48,2.8,9,7.53v.68a6.43,6.43,0,0,1-1.43,4.41,11.71,11.71,0,0,1-2.87,2.16c-1.56.84-2.62,2-2.62,3.61v.68l-4.91-.22c0-1.36,0-2,0-3.4q0-1.1,1.77-3.39c.84-1.09,1.68-2.14,2.53-3.17,0-.48,0-.72,0-1.19a1.72,1.72,0,0,0-1.78-2l-1.44-.08c-1.19-.07-1.78.52-1.78,1.77,0,.47,0,.71,0,1.19C215,505.52,213.61,505.44,210.9,505.26Zm10.5,44.85c-1-6.46-1.56-9.69-2.6-16.18-1,6.42-1.48,9.63-2.46,16.08Z" transform="translate(-13.19 -8.7)"/><path class="cls-6" d="M247.06,558.81c0-9,0-13.47,0-22.44,0-10.94,7.1-16.24,21.32-16.43,6.49-.09,11.31.81,14.47,2.79q5.65,3.63,5.62,12.75c0,9.94,0,14.91-.08,24.85,0,6-1.91,10.36-5.68,12.94-3.15,2.09-7.95,3.12-14.4,3.12q-10.18,0-15.23-3.68Q247.07,568.43,247.06,558.81Zm24.11.4c0-9.19,0-13.78,0-23a19.94,19.94,0,0,0-.09-2.6c-.22-1.17-1.15-1.74-2.78-1.72q-3.55,0-3.56,4.38c0,9.17,0,13.76,0,22.93q0,5.19,3.54,5.18C270.21,564.41,271.17,562.67,271.17,559.21Z" transform="translate(-13.19 -8.7)"/><path class="cls-6" d="M317.93,518.85c8.25-.58,12.38-.93,20.62-1.71,0,4.08,0,6.12-.07,10.2-1,1.15-1.54,3.1-1.56,5.83l-.05,6.43,6.16-.37c0-3.54,0-5.31.07-8.84a3.89,3.89,0,0,0-1.58-3.29c0-4.11,0-6.16.07-10.26,8.45-.83,12.67-1.3,21.11-2.34,0,4.26-.06,6.39-.09,10.65a8.57,8.57,0,0,0-2.07,6c0,1,0,1.45,0,2.42-.08,9.53-.11,14.3-.19,23.83,0,3.85.62,6.31,2,7.4l-.09,10.47-21,0c0-4,0-6,.07-10.07,1.07-.74,1.62-2.38,1.64-4.9,0-3.9,0-5.85.07-9.74l-6.16.26-.05,8q0,4.83,1.47,6.4c0,4,0,6-.07,10l-20.54,0c0-3.89,0-5.84.06-9.73,1.35-1.18,2-3,2-5.43l.15-25.44c0-3-.64-5-2-6C317.9,524.8,317.91,522.82,317.93,518.85Z" transform="translate(-13.19 -8.7)"/><path class="cls-6" d="M368.6,513.75c8.63-1.13,12.95-1.75,21.57-3.1L390.08,522q-2,2-2.08,6.58L387.77,557a20.09,20.09,0,0,0,.22,3.94,7.2,7.2,0,0,0,1.74,3.11c0,4.45-.06,6.67-.09,11.12l-21.55.06c0-4.23.06-6.35.09-10.59a7.08,7.08,0,0,0,1.9-5.18l.25-30.76q0-3.13-1.82-4.17C368.55,520.22,368.56,518.06,368.6,513.75Z" transform="translate(-13.19 -8.7)"/><path class="cls-6" d="M395.47,509.81c13.78-2.36,27.46-4.92,41.15-7.7l-.15,25.34c-6.45.9-9.67,1.33-16.13,2.15,0-1.83,0-2.74,0-4.56q0-4.34-4.57-3.66l-1.54.23c0,5,0,7.53-.09,12.55,4.47-.5,6.71-.76,11.18-1.3l-.1,13.7c-4.47.37-6.71.54-11.18.89l-.1,13.29,1.36.15c3.19-.13,4.79-2,4.82-5.56,0-2.06,0-3.09,0-5.15,6.46-.46,9.69-.7,16.14-1.2l-.16,26-41.23.16.1-11.86a4.2,4.2,0,0,0,1.54-3.68c.11-13.24.16-19.86.27-33.1q0-3.63-1.47-5.24C395.42,516.69,395.43,514.39,395.47,509.81Zm20.76-14.21c-1,2.33-1.53,3.49-2.56,5.8-3.63.72-5.44,1.07-9.07,1.74,3.06-5.74,4.6-8.67,7.66-14.65,3-.7,4.54-1.06,7.56-1.79,2.91,4.67,4.37,7.06,7.28,11.92-3.35.73-5,1.08-8.39,1.76C417.72,498.46,417.22,497.5,416.23,495.6Zm2.13-15.78c0-.85,0-1.28,0-2.13a14.24,14.24,0,0,1,3.07-7.69,12.33,12.33,0,0,1,6-3.93l1.26-.39c5.41-1.67,8.34.49,8.81,6.63v.9a13.18,13.18,0,0,1-1.46,6.35,19.61,19.61,0,0,1-2.86,3.77,9,9,0,0,0-2.56,6.39c-2,.48-3,.72-4.94,1.18,0-1.74,0-2.61,0-4.35,0-.94.6-2.57,1.79-4.91q1.27-2.52,2.54-5c0-.61,0-.92,0-1.54,0-1.61-.57-2.25-1.74-1.91l-1.42.41c-1.18.33-1.77,1.29-1.78,2.88,0,.61,0,.91,0,1.52C422.39,478.77,421,479.12,418.36,479.82Z" transform="translate(-13.19 -8.7)"/><path class="cls-6" d="M441.9,501c8.78-1.92,13.16-2.94,21.92-5.08,2.09,11.62,3.14,17.53,5.24,29.54,2.32-12.7,3.72-19.16,6-32.31,8.34-2.16,12.23-3.29,21.06-5.65v15.29A10.94,10.94,0,0,0,494,509c-.06.46-.21,2.73-.21,6.82,0,13.33-.06,20-.07,33.33a51.49,51.49,0,0,0,.3,5.59c.28,2,.88,3.41,2.14,4.16v15.83l-20.77.12c0-5.94-.1-8.91-.08-14.85,1.23-.74,1.79-2.63,1.8-5.67,0-9.31,0-14,0-23.28q-3.74,21.93-7.69,43.83l-4.89,0q-3.64-20.24-7.39-40.45c0,7.05-.05,10.57-.08,17.62a46,46,0,0,0,.14,5,5,5,0,0,0,1.75,3.73c0,5.65,0,8.48-.06,14.13l-17.42.09c0-5.38,0-8.06.08-13.44,1.23-.43,1.86-1.83,1.87-4.2q.12-19.46.22-38.91c0-2.59-.59-4.08-1.81-4.47C441.86,508.76,441.87,506.17,441.9,501Z" transform="translate(-13.19 -8.7)"/><path class="cls-6" d="M238.08,683.71c-8.23.22-13.78-4.37-16.76-6.84l-.53-.43a23.33,23.33,0,0,1-10,3.36c-1,.1-2,.16-2.91.19-14.24.38-20.69-8.11-22.8-11.77a23.94,23.94,0,0,1-2.69-7.14A30.06,30.06,0,0,1,177,660c-9.7-3-22.6-9.54-22.59-31.58v-.8l.08-.8c1.5-13.55,8.49-24.68,20.21-32.19,9.2-5.9,20.86-9.2,33.71-9.54,13.9-.37,27.82,2.87,38.22,8.89A50.29,50.29,0,0,1,264,609.21a19.44,19.44,0,0,1,12.23-5l.93-.06h.17A17,17,0,0,1,287,606.9l.36.24.34.24a18.89,18.89,0,0,1,2.86,2.6,28.66,28.66,0,0,1,17.86-7.2A26.88,26.88,0,0,1,328.26,611l2.6,2.82.88,3.73c.27,1.16.5,2.31.69,3.46a13,13,0,0,1,5.63,3.42,12.57,12.57,0,0,1,3.54,9.65l-.22,3.67c0,.6-.06,1.19-.09,1.8v.06c-.26,6.3-.75,18-12.48,26.67l-.42.31-.44.28a34.14,34.14,0,0,1-17.33,5.74,26.59,26.59,0,0,1-15.68-4.54q-.54.52-1.11,1a17.71,17.71,0,0,1-4.92,8,18.53,18.53,0,0,1-11.62,5.27l-.55,0-.37,0a17.52,17.52,0,0,1-16.61-9.83c-5.53,6.15-12.08,9.88-19.26,10.91a19.76,19.76,0,0,1-2.42.21Z" transform="translate(-13.19 -8.7)"/><path class="cls-3" d="M325.67,628.8a36.59,36.59,0,0,0-1-9.56l-.44-1.87-1.3-1.4a19.63,19.63,0,0,0-14.27-5.9c-5.27.14-10.3,2.46-14.95,6.89l-.12.12-.11.12a20.78,20.78,0,0,0-2.69,3.5,9.26,9.26,0,0,0-1.63-2l0-.13-3.43-3.06a11.71,11.71,0,0,0-2.33-2.29l-.17-.12-.18-.12a9.77,9.77,0,0,0-5.54-1.59h-.09l-.68,0c-5.8.43-8.54,3.33-9.83,5.71a5.48,5.48,0,0,1-1.57,1.83l-.1.07-.1.08a10.24,10.24,0,0,0-2.57,3c-2.86-7.76-8.53-15.87-19.56-21.9-9.27-5.4-21.81-8.3-34.43-8-11.53.31-21.89,3.21-30,8.39a35.75,35.75,0,0,0-16.9,26.86l0,.4v.4c0,16.89,8.39,21.82,17.46,24.62a24.39,24.39,0,0,0,7.93,1c.66,0,1.38-.06,2.13-.14a17.61,17.61,0,0,0,2.14,10.7c1.81,3.15,6.34,8.39,16.3,8.13.78,0,1.58-.08,2.4-.17a17.94,17.94,0,0,0,11.79-6.43h0a50.53,50.53,0,0,0,4.13,5.15c2.56,2.11,6.43,5.31,11.92,5.17a13.84,13.84,0,0,0,1.58-.14c7.3-1,13.91-6,19.12-14.23.33-.53.65-1.07,1-1.62a22.2,22.2,0,0,0,1.77,2.13,19.54,19.54,0,0,0,4,3.23,10.21,10.21,0,0,0,10.85,9.33h.21l.36,0a11.33,11.33,0,0,0,7.12-3.26,10.68,10.68,0,0,0,3.36-6.82,21.09,21.09,0,0,0,5.34-5.36,21.84,21.84,0,0,0,1.36-2.21c5.68,6.65,12,8,16.5,7.89a27.07,27.07,0,0,0,13.63-4.62l.22-.14.21-.16c8.92-6.57,9.28-15.31,9.52-21.1,0-.67.06-1.34.1-2l.22-3.68A5.51,5.51,0,0,0,325.67,628.8Z" transform="translate(-13.19 -8.7)"/><path class="cls-2" d="M215.44,614.53s-8.35,1.35-8.62,17.65c-2.48,1.19-5.67,3.23-6.63,7.09,3.22-.39,6.75-1.94,7.27-.7,0,1.38,4.18,12.77-1.21,19.34-1.52,1.87-6.08,2.11-7.1-.5-.49-1.49-.34-2.34.41-2.26,1-.88-1.3-3.86-3.39-.53-1.12,1.82-1.6,13.75,12.51,12.17,5-.35,11.47-6.52,11.72-17.86-.47-8.63-1.18-11-1.18-11s7.63-.13,9.19,2.53c-.72-3.93-1.55-6.3-2.84-6.3,5.06-3.19,4.9-4.29,4.9-4.29s-9.6-1.26-12-.47c-.63-4.54-1.75-8.44.92-13.49,2.48-5,0-3.28,0-3.28Z" transform="translate(-13.19 -8.7)"/><path class="cls-2" d="M317.56,620.91s-8.17-8.84-18.84,1.33c-5,5.17-7.38,17.67-.9,28.31,4.48,6.61,11.45,10.91,22.35,4,6.91-5.1,6.3-11.63,6.67-17.69-4.85,3.4-6.06,4.74-8.6,6.19a5.87,5.87,0,0,0,3.64,1.23s-3.75,7-10.92,6.49c-1.76-.39-9-2.23-9.32-16.92.1-4.79,3.18-9.52,7.87-5.14,2.86,3.29,4.08,7.85,4.6,9.75S322.7,629.17,317.56,620.91Z" transform="translate(-13.19 -8.7)"/><path class="cls-2" d="M195.63,641.7s2.52.74,1.87,2c-.68,1-9.06,4.55-16.2,2.34S168.61,641.1,169,628.37c3.44-31,48.31-34.73,70.49-21.75,18.95,10.32,19.08,27.22,18.48,37-.4,6.49-5.69,23.27-19.5,25.41-6.49.94-9.6-8.41-16.54-6.86,3.81-3.29,8.65-1,13.55-1.12,10.24-1.66,11.15-31-2.75-39.54-10.48-9-47.29-13.82-56.14,5.88,0,0-1.43,4.87,1.5,8,2.22-.39,5.82-2.21,9.28.25a9.36,9.36,0,0,0,6.08-.8c1.13-.79,4.62-1.43,4.08.58s-1.81,1.78-1.78,3c0,.76-1.28-.32-1.28-.32s-6.08,1.37-8,3.44c1.69,1.21,3.59,2.86,7.61,1.6C194.2,642.32,195.63,641.7,195.63,641.7Z" transform="translate(-13.19 -8.7)"/><path class="cls-2" d="M287.47,633.31a9.67,9.67,0,0,0-5.51-4.6,6.36,6.36,0,0,0-.94-.62,8.92,8.92,0,0,0,2-.54c.6-.24,2-.8,1.95-2.06a2.58,2.58,0,0,0-1.48-1.93,11.68,11.68,0,0,1-2.61-2.31l.07-.26-.53-.48-.29-.38a4.57,4.57,0,0,0-1-1,2.45,2.45,0,0,0-1.42-.43l-.39,0c-2.06.15-3.36.78-4,1.91a12.77,12.77,0,0,1-3.64,4.21,2.37,2.37,0,0,0-1,2,1.73,1.73,0,0,0,1.24,1.55,3.42,3.42,0,0,0,1.56.28h0a13.64,13.64,0,0,0-2.46,1.74,18.45,18.45,0,0,0-5,7.35,22.9,22.9,0,0,0-1.5,9.21c.19,4.41,1.54,8,4,10.55a11.66,11.66,0,0,0,7.52,3.67,3.78,3.78,0,0,0-.61.65,4.43,4.43,0,0,0-.94,3c.09,2,1.4,3.12,3.51,3h.14a3.92,3.92,0,0,0,2.61-1.25,3.56,3.56,0,0,0,1.18-3,3.08,3.08,0,0,0-1.19-2.43,2.3,2.3,0,0,0-.28-.23,12.76,12.76,0,0,0,8.06-5.44c2.41-3.48,3.51-7.91,3.29-13.17A19,19,0,0,0,287.47,633.31Zm-11.05-.1c3.12,1.61,4.75,5,5,10.23l.07.54a19.37,19.37,0,0,1-1.23,7.83c-1.17,2.88-2.73,3.06-3.39,3.11h-.05c-.83,0-2.09-.14-3.36-2.15a13.5,13.5,0,0,1-1.82-6.74,18.37,18.37,0,0,1,1.49-8.43C274.08,635.5,275,633.82,276.42,633.21Zm.87-6.11.08,0h-.91l-1,.1a6.57,6.57,0,0,0,.88-.87Q276.78,626.74,277.29,627.1Z" transform="translate(-13.19 -8.7)"/><path class="cls-8" d="M219.37,615.87s-6.35,7.55-4.69,14.45a12.34,12.34,0,0,1,3.77-1S216.4,620.56,219.37,615.87Z" transform="translate(-13.19 -8.7)"/><path class="cls-8" d="M219.22,637.89l-4.81-.18s8,25.83-9.22,29.19c3.49-.11,9,.78,13.53-9.23C220.88,652.28,221.08,642.44,219.22,637.89Z" transform="translate(-13.19 -8.7)"/><path class="cls-8" d="M219.37,600.15c44.87,15.72,37.66,59.16,18,69,3.69,0,22.34-4.35,20.55-34.79C257.4,624.45,250.74,604.85,219.37,600.15Z" transform="translate(-13.19 -8.7)"/><path class="cls-8" d="M276.42,633.21s-7.37,0-7.6,11.72c-.19,8.6,5.94,10.88,8,10-1.37-.23-4.93-.69-5.21-9.94C271.73,640.26,273.07,635.5,276.42,633.21Z" transform="translate(-13.19 -8.7)"/><path class="cls-8" d="M305.23,627.09s-8.42,1.09-5,17.07c1.8,6.83,11.62,13.14,17.18,4.93-2,1-9.26,5.48-14.19-5.81C300.76,637,300.69,629.83,305.23,627.09Z" transform="translate(-13.19 -8.7)"/><path class="cls-8" d="M282,628.71S294,650.55,278.53,661c5.31-1.23,11.89-6.22,11.38-20C289.39,632.41,283,628.33,282,628.71Z" transform="translate(-13.19 -8.7)"/></svg>